<svg xmlns="http://www.w3.org/2000/svg" width="16.445" height="18" viewBox="0 0 16.445 18">
  <g id="Group_1504" data-name="Group 1504" transform="translate(-2 -1)">
    <path id="Path_473" data-name="Path 473" d="M11.091,10.818a3.939,3.939,0,0,1-1.964-.573C7.736,9.345,7,7.464,7,5.091a4.091,4.091,0,0,1,8.182,0c0,2.373-.736,4.255-2.127,5.155A3.939,3.939,0,0,1,11.091,10.818Zm0-8.182A2.411,2.411,0,0,0,8.636,5.091c0,1.8.491,3.191,1.391,3.764a2,2,0,0,0,2.127,0c.9-.573,1.391-1.964,1.391-3.764A2.411,2.411,0,0,0,11.091,2.636Z" transform="translate(-0.909)" fill="tomato"/>
    <path id="Path_474" data-name="Path 474" d="M10.182,20.836C8.3,20.836,2,20.591,2,17.564s2.209-4.091,4.664-4.827a1.869,1.869,0,0,0,1.064-1.555l1.636.327a3.326,3.326,0,0,1-2.209,2.782c-2.455.818-3.518,1.473-3.518,3.273,0,.9,3.436,1.636,6.545,1.636s6.545-.736,6.545-1.636c0-1.8-1.064-2.455-3.518-3.355A3.461,3.461,0,0,1,11,11.427l1.636-.327c.245,1.227.9,1.473,1.145,1.555,2.455.818,4.664,1.8,4.664,4.827-.082.818-.655,3.355-8.264,3.355Z" transform="translate(0 -1.836)" fill="tomato"/>
  </g>
</svg>
