<svg xmlns="http://www.w3.org/2000/svg" width="18" height="18" viewBox="0 0 18 18">
  <path id="Path_472" data-name="Path 472" d="M15.269,9.712A2.768,2.768,0,0,1,18,12.492h0v2.72A2.777,2.777,0,0,1,15.269,18H12.6a2.769,2.769,0,0,1-2.723-2.788h0v-2.72A2.752,2.752,0,0,1,12.6,9.712h2.665Zm-11.443,0a.73.73,0,0,1,.7.348.764.764,0,0,1,0,.8.73.73,0,0,1-.7.348H2.731a1.283,1.283,0,0,0-1.27,1.288h0v2.686a1.308,1.308,0,0,0,1.27,1.288H5.413a1.248,1.248,0,0,0,.9-.374,1.3,1.3,0,0,0,.372-.913h0V11.145l-.011-.1a.755.755,0,0,1,.341-.67.723.723,0,0,1,.823.024.758.758,0,0,1,.285.788h0V15.2a2.76,2.76,0,0,1-2.731,2.788H2.731A2.819,2.819,0,0,1,0,15.2H0V12.492a2.809,2.809,0,0,1,.8-1.969,2.7,2.7,0,0,1,1.931-.811H3.826ZM15.269,11.2H12.6a1.275,1.275,0,0,0-1.261,1.288h0v2.72a1.293,1.293,0,0,0,.367.913,1.24,1.24,0,0,0,.894.375h2.665a1.24,1.24,0,0,0,.894-.375,1.293,1.293,0,0,0,.367-.913h0v-2.72a1.3,1.3,0,0,0-.369-.91,1.248,1.248,0,0,0-.892-.377Zm0-11.2a2.82,2.82,0,0,1,2.723,2.788h0V5.5a2.811,2.811,0,0,1-.774,1.976,2.7,2.7,0,0,1-1.916.838H14.2a.752.752,0,0,1,0-1.492h1.069a1.257,1.257,0,0,0,.9-.389,1.311,1.311,0,0,0,.363-.924h0V2.788A1.291,1.291,0,0,0,15.269,1.5H12.6a1.275,1.275,0,0,0-1.261,1.288h0V6.856l-.009.094a.748.748,0,0,1-.743.64.72.72,0,0,1-.512-.232.751.751,0,0,1-.2-.535h0V2.788A2.81,2.81,0,0,1,10.676.817,2.7,2.7,0,0,1,12.6,0h2.665ZM5.4,0A2.769,2.769,0,0,1,8.127,2.788h0v2.72a2.809,2.809,0,0,1-.8,1.969A2.7,2.7,0,0,1,5.4,8.288H2.731A2.768,2.768,0,0,1,0,5.508H0V2.788A2.777,2.777,0,0,1,2.731,0H5.4Zm0,1.5H2.731a1.248,1.248,0,0,0-.908.368,1.3,1.3,0,0,0-.378.92h0v2.72a1.3,1.3,0,0,0,.369.936,1.248,1.248,0,0,0,.917.377H5.4a1.257,1.257,0,0,0,.9-.389,1.311,1.311,0,0,0,.363-.924h0V2.788A1.283,1.283,0,0,0,5.4,1.5Z" fill="#9a9fad"/>
</svg>
