<?xml version="1.0" encoding="utf-8"?>
<!-- Generator: Adobe Illustrator 18.0.0, SVG Export Plug-In . SVG Version: 6.00 Build 0)  -->
<!DOCTYPE svg PUBLIC "-//W3C//DTD SVG 1.1//EN" "http://www.w3.org/Graphics/SVG/1.1/DTD/svg11.dtd">
<svg version="1.1" id="Layer_1" xmlns="http://www.w3.org/2000/svg" xmlns:xlink="http://www.w3.org/1999/xlink" x="0px" y="0px"
	 viewBox="0 0 28 28" enable-background="new 0 0 28 28" xml:space="preserve">
<g>
	<circle opacity="0.2" cx="14" cy="14" r="14"/>
	<g>
		<path fill="#FFFFFF" d="M21.4,12.5l-7.1-5.2c-0.1-0.1-0.2-0.1-0.3-0.1c-0.1,0-0.2,0-0.3,0.1l-7.1,5.2c-0.1,0.1-0.2,0.2-0.2,0.3
			c0,0.1,0,0.3,0.1,0.4c0.1,0.1,0.2,0.2,0.4,0.2c0.1,0,0.2,0,0.3-0.1l6.8-5l6.8,5c0.1,0.1,0.2,0.1,0.3,0.1c0.2,0,0.3-0.1,0.4-0.2
			C21.7,13,21.6,12.7,21.4,12.5z"/>
		<path fill="#FFFFFF" d="M19.5,13.2c-0.3,0-0.5,0.2-0.5,0.5v6.1H16v-3.3c0-1.1-0.9-2-2-2s-2,0.9-2,2v3.3H9v-6.1
			c0-0.3-0.2-0.5-0.5-0.5c-0.3,0-0.5,0.2-0.5,0.5v6.6c0,0.3,0.2,0.5,0.5,0.5h3.9c0.3,0,0.5-0.2,0.5-0.4c0,0,0,0,0,0v-3.8
			c0-0.6,0.5-1.1,1.1-1.1c0.6,0,1.1,0.5,1.1,1.1v3.8c0,0,0,0,0,0c0,0.2,0.2,0.4,0.5,0.4h3.9c0.3,0,0.5-0.2,0.5-0.5v-6.6
			C19.9,13.4,19.7,13.2,19.5,13.2z"/>
	</g>
</g>
</svg>
