<?xml version="1.0" encoding="utf-8"?>
<!-- Generator: Adobe Illustrator 18.0.0, SVG Export Plug-In . SVG Version: 6.00 Build 0)  -->
<!DOCTYPE svg PUBLIC "-//W3C//DTD SVG 1.1//EN" "http://www.w3.org/Graphics/SVG/1.1/DTD/svg11.dtd">
<svg version="1.1" id="Capa_1" xmlns="http://www.w3.org/2000/svg" xmlns:xlink="http://www.w3.org/1999/xlink" x="0px" y="0px"
	 viewBox="0 0 1000 450" enable-background="new 0 0 1000 450" xml:space="preserve">
<g>
	<path fill="#D14633" d="M702.6,388.4H401.6c-12.4,0-22.5-10.1-22.5-22.5c0-12.4,10.1-22.5,22.5-22.5h300.9
		c12.4,0,22.5,10.1,22.5,22.5C725,378.3,715,388.4,702.6,388.4z"/>
	<path fill="#D14633" d="M702.6,247.5H401.6c-12.4,0-22.5-10.1-22.5-22.5s10.1-22.5,22.5-22.5h300.9c12.4,0,22.5,10.1,22.5,22.5
		C725,237.4,715,247.5,702.6,247.5z"/>
	<path fill="#D14633" d="M702.6,106.5H401.6c-12.4,0-22.5-10.1-22.5-22.5s10.1-22.5,22.5-22.5h300.9c12.4,0,22.5,10.1,22.5,22.5
		S715,106.5,702.6,106.5z"/>
	<circle fill="#D14633" cx="305.2" cy="85.8" r="30.2"/>
	<circle fill="#D14633" cx="305.2" cy="225" r="30.2"/>
	<circle fill="#D14633" cx="305.2" cy="364.2" r="30.2"/>
</g>
</svg>
