<svg xmlns="http://www.w3.org/2000/svg" xmlns:xlink="http://www.w3.org/1999/xlink" width="43" height="43" viewBox="0 0 43 43">
  <defs>
    <linearGradient id="linear-gradient" x1="0.5" x2="0.5" y2="1" gradientUnits="objectBoundingBox">
      <stop offset="0" stop-color="tomato"/>
      <stop offset="1" stop-color="#ff2c7b"/>
    </linearGradient>
  </defs>
  <g id="Group_1580" data-name="Group 1580" transform="translate(-21 -220)">
    <circle id="Ellipse_4" data-name="Ellipse 4" cx="21.5" cy="21.5" r="21.5" transform="translate(21 220)" fill="url(#linear-gradient)"/>
    <g id="Group_1" data-name="Group 1" transform="translate(33 232)">
      <path id="Path_14" data-name="Path 14" d="M14.075,0h3.386A2.549,2.549,0,0,1,20,2.56V5.975a2.549,2.549,0,0,1-2.538,2.56H14.075a2.549,2.549,0,0,1-2.538-2.56V2.56A2.549,2.549,0,0,1,14.075,0" fill="#fff" opacity="0.4"/>
      <path id="Path_15" data-name="Path 15" d="M5.924,11.465a2.549,2.549,0,0,1,2.539,2.56V17.44A2.55,2.55,0,0,1,5.924,20H2.539A2.55,2.55,0,0,1,0,17.44V14.026a2.549,2.549,0,0,1,2.539-2.56Zm11.537,0A2.549,2.549,0,0,1,20,14.026V17.44A2.55,2.55,0,0,1,17.462,20H14.075a2.55,2.55,0,0,1-2.538-2.56V14.026a2.549,2.549,0,0,1,2.538-2.56ZM5.924,0A2.549,2.549,0,0,1,8.463,2.56V5.975a2.549,2.549,0,0,1-2.539,2.56H2.539A2.549,2.549,0,0,1,0,5.975V2.56A2.549,2.549,0,0,1,2.539,0Z" fill="#fff"/>
    </g>
  </g>
</svg>
