<svg xmlns="http://www.w3.org/2000/svg" xmlns:xlink="http://www.w3.org/1999/xlink" width="43" height="43" viewBox="0 0 43 43">
  <defs>
    <linearGradient id="linear-gradient" x1="0.5" x2="0.5" y2="1" gradientUnits="objectBoundingBox">
      <stop offset="0" stop-color="#41ff9a"/>
      <stop offset="1" stop-color="#00c126"/>
    </linearGradient>
  </defs>
  <g id="Group_1583" data-name="Group 1583" transform="translate(-239 -219)">
    <circle id="Ellipse_7" data-name="Ellipse 7" cx="21.5" cy="21.5" r="21.5" transform="translate(239 219)" fill="url(#linear-gradient)"/>
    <path id="Path_110" data-name="Path 110" d="M33.827,1023.99a2.69,2.69,0,0,0-2.694,2.715v6.954a2.747,2.747,0,0,1,1.567,2.476v2.742H45.238v-2.742a2.748,2.748,0,0,1,1.567-2.476V1026.7a2.69,2.69,0,0,0-2.694-2.715H33.827Zm.8,3.134h.028a.378.378,0,1,1-.028,0Zm4.31,0h.028a.378.378,0,1,1-.028,0Zm4.31,0h.028a.378.378,0,1,1-.028,0Zm-6.66,1.567h.028a.378.378,0,1,1-.028,0Zm4.7,0h.028a.378.378,0,1,1-.028,0Zm-6.66,1.567h.028a.378.378,0,1,1-.028,0Zm4.31,0h.028a.378.378,0,1,1-.028,0Zm4.31,0h.028a.378.378,0,1,1-.028,0Zm-6.66,1.567h.028a.378.378,0,1,1-.028,0Zm4.7,0h.028a.378.378,0,1,1-.028,0Zm-6.66,1.567h.028a.378.378,0,1,1-.028,0Zm4.31,0h.028a.378.378,0,1,1-.028,0Zm4.31,0h.028a.378.378,0,1,1-.028,0Zm-13.163.788a1.959,1.959,0,0,0-.514,3.875l-.008.032h0v7.2a.622.622,0,0,0,.627.637h1.72v-9.785a1.953,1.953,0,0,0-1.827-1.954h0Zm17.763,0h0a1.954,1.954,0,0,0-1.83,1.953v9.785h1.72a.623.623,0,0,0,.629-.637v-7.2h0l-.008-.032a1.959,1.959,0,0,0-.516-3.875Zm-11.261.779h.028a.378.378,0,1,1-.028,0Zm4.7,0h.028a.378.378,0,1,1-.028,0Zm-6.66,1.567h.028a.378.378,0,1,1-.028,0Zm4.31,0h.028a.378.378,0,1,1-.028,0Zm4.31,0h.028a.378.378,0,1,1-.028,0ZM32.7,1039.661v1.567H45.238v-1.567Zm0,2.351v3.909H45.238v-3.909Zm-2.334,4.7v.783h1.55v-.783Zm15.654,0v.783H47.6v-.783Z" transform="translate(222.029 -794.244)" fill="#fff"/>
  </g>
</svg>
