<?xml version="1.0" encoding="utf-8"?>
<!-- Generator: Adobe Illustrator 18.0.0, SVG Export Plug-In . SVG Version: 6.00 Build 0)  -->
<!DOCTYPE svg PUBLIC "-//W3C//DTD SVG 1.1//EN" "http://www.w3.org/Graphics/SVG/1.1/DTD/svg11.dtd">
<svg version="1.1" id="Layer_1" xmlns="http://www.w3.org/2000/svg" xmlns:xlink="http://www.w3.org/1999/xlink" x="0px" y="0px"
	 viewBox="0 0 28 28" enable-background="new 0 0 28 28" xml:space="preserve">
<g>
	<circle opacity="0.2" cx="14" cy="14" r="14"/>
	<path fill="#FFFFFF" d="M20.7,18.3c0,0.1,0,0.2,0,0.3c0,0.1,0,0.1,0,0.2c-0.1,0.9-0.8,1.6-1.6,1.8c-0.1,0-0.3,0.1-0.4,0.1
		c-0.1,0-0.2,0-0.3,0c0,0,0,0-0.1,0c-0.2,0-0.3,0-0.5-0.1c-1.1-0.4-1.7-1.4-1.5-2.6c0-0.1,0-0.1-0.1-0.1c-1.7-0.8-3.3-1.7-5-2.5
		c-0.1,0-0.1,0-0.1,0c-0.4,0.4-0.9,0.7-1.5,0.7c-1.1,0.1-2-0.6-2.3-1.6c0-0.1-0.1-0.3-0.1-0.4c0-0.1,0-0.2,0-0.3c0-0.1,0-0.2,0-0.3
		c0.2-0.9,0.7-1.5,1.6-1.7c0.9-0.2,1.6,0,2.2,0.6c0,0,0.1,0,0.1,0c1.7-0.8,3.3-1.7,5-2.5c0,0,0.1,0,0.1-0.1c-0.1-0.3,0-0.5,0-0.8
		c0.1-0.8,0.8-1.6,1.7-1.8c0.1,0,0.2,0,0.4-0.1c0.1,0,0.2,0,0.3,0c0,0,0,0,0,0c0.9,0.1,1.7,0.7,2,1.6c0,0.1,0.1,0.3,0.1,0.4
		c0,0.1,0,0.2,0,0.3c0,0.1,0,0.2-0.1,0.3c-0.4,1.6-2.2,2.3-3.5,1.3c-0.1-0.1-0.3-0.2-0.4-0.4c0,0,0,0,0,0c-1.7,0.8-3.3,1.7-5,2.5
		c0,0,0,0,0,0.1c0,0.3,0.1,0.5,0,0.8c0,0.1,0,0.1,0.1,0.1c1.5,0.8,3,1.5,4.5,2.3c0.2,0.1,0.3,0.2,0.5,0.3c0,0,0,0,0.1-0.1
		c0.5-0.5,1.2-0.8,1.9-0.7c0.9,0.1,1.7,0.8,1.9,1.8C20.7,18.1,20.7,18.2,20.7,18.3z"/>
</g>
</svg>
