<?xml version="1.0" encoding="utf-8"?>
<!-- Generator: Adobe Illustrator 18.0.0, SVG Export Plug-In . SVG Version: 6.00 Build 0)  -->
<!DOCTYPE svg PUBLIC "-//W3C//DTD SVG 1.1//EN" "http://www.w3.org/Graphics/SVG/1.1/DTD/svg11.dtd">
<svg version="1.1" id="Layer_1" xmlns="http://www.w3.org/2000/svg" xmlns:xlink="http://www.w3.org/1999/xlink" x="0px" y="0px"
	 viewBox="0 0 1000 450" enable-background="new 0 0 1000 450" xml:space="preserve">
<g>
	<g>
		<g>
			<g>
				<path fill="#D14633" d="M692.1,40.9H356.8v2.9l-4.2-14.4C347.6,12.1,331.4,0,313.4,0h-28.1C279.6,0,275,4.6,275,10.2
					s4.6,10.2,10.2,10.2h28.1c9,0,17.1,6.1,19.6,14.7l63.7,218.3L364,294.2c-4.7,5.8-7.2,13.1-7.2,20.6c0,18.2,14.8,32.9,32.9,32.9
					h284.1c5.7,0,10.2-4.6,10.2-10.2c0-5.7-4.6-10.2-10.2-10.2H389.8c-6.9,0-12.5-5.6-12.5-12.5c0-2.8,1-5.6,2.7-7.8l32.9-41.1
					h200.6c15.8,0,30.3-9.2,37-23.5l71.4-151.7c2-4.4,3.1-9.2,3.1-14v-2.9C725,55.7,710.2,40.9,692.1,40.9z M704.5,76.7
					c0,1.8-0.4,3.7-1.2,5.3L632,233.7c-3.4,7.1-10.6,11.7-18.5,11.7H415.6L361.9,61.4h330.1c6.9,0,12.5,5.6,12.5,12.5V76.7z"/>
				<path fill="#D14633" d="M397.7,368.2c-22.6,0-40.9,18.3-40.9,40.9c0,22.6,18.3,40.9,40.9,40.9s40.9-18.3,40.9-40.9
					C438.6,386.5,420.3,368.2,397.7,368.2z M397.7,429.5c-11.3,0-20.5-9.2-20.5-20.5c0-11.3,9.2-20.5,20.5-20.5s20.5,9.2,20.5,20.5
					C418.2,420.4,409,429.5,397.7,429.5z"/>
				<path fill="#D14633" d="M643.2,368.2c-22.6,0-40.9,18.3-40.9,40.9c0,22.6,18.3,40.9,40.9,40.9s40.9-18.3,40.9-40.9
					C684.1,386.5,665.7,368.2,643.2,368.2z M643.2,429.5c-11.3,0-20.5-9.2-20.5-20.5c0-11.3,9.2-20.5,20.5-20.5s20.5,9.2,20.5,20.5
					C663.6,420.4,654.5,429.5,643.2,429.5z"/>
			</g>
		</g>
	</g>
</g>
</svg>
