<svg xmlns="http://www.w3.org/2000/svg" width="22.905" height="18" viewBox="0 0 22.905 18">
  <path id="XMLID_1732_" d="M22.855,15.058l-2.664,8.39a1.412,1.412,0,0,1-1.344,1H8.564A1.468,1.468,0,0,1,7.2,23.523L3.261,12.992H1A1,1,0,1,1,1,11H3.958a1.019,1.019,0,0,1,.946.672l4.058,10.78h9.461l2.116-6.722H8.813a1,1,0,1,1,0-1.992h13.1a.99.99,0,0,1,.8.423.965.965,0,0,1,.149.9ZM9.062,25.763a1.615,1.615,0,1,0,1.145.473A1.642,1.642,0,0,0,9.062,25.763Zm8.938,0a1.615,1.615,0,1,0,1.145.473A1.642,1.642,0,0,0,18,25.763Z" transform="translate(0 -11)" fill="#9a9fad"/>
</svg>
