<?xml version="1.0" encoding="utf-8"?>
<!-- Generator: Adobe Illustrator 18.0.0, SVG Export Plug-In . SVG Version: 6.00 Build 0)  -->
<!DOCTYPE svg PUBLIC "-//W3C//DTD SVG 1.1//EN" "http://www.w3.org/Graphics/SVG/1.1/DTD/svg11.dtd">
<svg version="1.1" id="Layer_1" xmlns="http://www.w3.org/2000/svg" xmlns:xlink="http://www.w3.org/1999/xlink" x="0px" y="0px"
	 viewBox="0 0 24 22.3" enable-background="new 0 0 24 22.3" xml:space="preserve">
<g>
	<path fill="#777777" d="M23.5,11.1h-0.3V7.7v-3c0-1-0.8-1.8-1.8-1.9l-0.5-2c-0.1-0.6-0.8-1-1.4-0.8L8,2.9c0,0-0.1,0-0.1,0h-6
		C0.8,2.8,0,3.7,0,4.7v15.7c0,1,0.8,1.9,1.9,1.9h19.5c1,0,1.9-0.8,1.9-1.9v-3.4h0.3c0.3,0,0.5-0.2,0.5-0.5v-5.1
		C24,11.3,23.8,11.1,23.5,11.1z M22.5,4.7L22.5,4.7c-0.2-0.1-0.4-0.2-0.6-0.3l-0.2-0.8C22.2,3.8,22.5,4.2,22.5,4.7z M1.9,3.6h3.1
		L1.8,4.4c0,0,0,0,0,0l0,0c0,0,0,0,0,0c0,0,0,0,0,0c0,0,0,0,0,0c0,0,0,0,0,0c0,0,0,0,0,0c0,0,0,0,0,0c0,0,0,0,0,0c0,0,0,0,0,0
		c0,0,0,0,0,0c0,0,0,0,0,0c0,0,0,0,0,0c0,0,0,0,0,0c0,0,0,0,0,0c0,0,0,0,0,0c0,0,0,0,0,0c0,0,0,0,0,0c0,0,0,0,0,0c0,0,0,0,0,0
		c0,0,0,0,0,0c0,0,0,0,0,0c0,0,0,0,0,0c0,0,0,0,0,0c0,0,0,0,0,0c0,0,0,0,0,0c0,0,0,0,0,0c0,0,0,0,0,0c0,0,0,0,0,0c0,0,0,0,0,0
		c0,0,0,0,0,0c0,0,0,0,0,0c0,0,0,0,0,0c0,0,0,0,0,0c0,0,0,0,0,0c0,0,0,0,0,0c0,0,0,0,0,0c0,0,0,0,0,0c0,0,0,0,0,0c0,0,0,0,0,0
		c0,0,0,0,0,0c0,0,0,0,0,0c0,0,0,0,0,0c0,0,0,0,0,0c0,0,0,0,0,0c0,0,0,0,0,0c0,0,0,0,0,0c0,0,0,0,0,0c0,0,0,0,0,0c0,0,0,0,0,0
		c0,0,0,0,0,0c0,0,0,0,0,0c0,0,0,0,0,0c0,0,0,0,0,0c0,0,0,0,0,0c0,0,0,0,0,0c0,0,0,0,0,0c0,0,0,0,0,0c0,0,0,0,0,0c0,0,0,0,0,0
		c0,0,0,0,0,0l0,0c0,0,0,0,0,0h0h0c0,0,0,0,0,0h17.6c0.2,0,0.4-0.2,0.4-0.4s-0.2-0.4-0.4-0.4H5l14.8-3.6c0.2,0,0.4,0.1,0.5,0.3
		l0.8,3.3H21c-0.2,0-0.4,0.2-0.4,0.4s0.2,0.4,0.4,0.4h0.4c0,0,0.1,0,0.1,0c0,0,0,0,0,0c0.5,0.1,1,0.5,1,1.1v0
		c-0.3-0.2-0.7-0.4-1.1-0.4H1.9c-0.6,0-1.1-0.5-1.1-1.1S1.3,3.6,1.9,3.6z M22.5,20.5c0,0.6-0.5,1.1-1.1,1.1H1.9
		c-0.6,0-1.1-0.5-1.1-1.1V6.2c0.3,0.2,0.7,0.4,1.1,0.4h19.5c0.6,0,1.1,0.5,1.1,1.1v3.4H17c-0.3,0-0.5,0.2-0.5,0.5v5
		c0,0.3,0.2,0.5,0.5,0.5h5.5V20.5z M23.2,16.3h-6v-4.5h5.6c0,0,0,0,0,0c0,0,0,0,0,0h0.4V16.3z"/>
	<path fill="#777777" d="M20.2,13.7c-0.2,0-0.4,0.2-0.4,0.4c0,0.2-0.2,0.4-0.4,0.4s-0.4-0.2-0.4-0.4s0.2-0.4,0.4-0.4
		c0.2,0,0.4-0.2,0.4-0.4c0-0.2-0.2-0.4-0.4-0.4c-0.6,0-1.1,0.5-1.1,1.1c0,0.6,0.5,1.1,1.1,1.1s1.1-0.5,1.1-1.1
		C20.6,13.9,20.5,13.7,20.2,13.7z"/>
</g>
</svg>
